<svg xmlns="http://www.w3.org/2000/svg" xmlns:v="https://svgstorm.com"
viewBox = "0 0 2167 1181"
width="2167"
height="1181">
<g fill="None" fill-opacity="0.0" stroke="#000000" stroke-opacity="0.00" stroke-width="0.3"><path d="
M 0.00 1181.00 
L 2167.00 1181.00
L 2167.00 0.00
L 0.00 0.00
L 0.00 1181.00
M 1102.00 290.00 
C 1121.25 291.86 1144.40 297.34 1162.67 303.33 C 1180.95 309.31 1197.29 317.45 1213.68 326.32 C 1230.07 335.19 1241.72 347.11 1255.75 358.25 C 1269.79 369.38 1279.80 384.41 1291.30 397.70 C 1302.79 410.99 1309.45 430.24 1318.31 444.69 C 1327.16 459.15 1334.45 491.38 1310.99 491.99 C 1287.54 492.61 1289.35 463.62 1279.25 448.75 C 1269.14 433.89 1263.00 417.65 1249.75 404.25 C 1236.50 390.85 1226.49 379.36 1210.92 369.08 C 1195.35 358.80 1181.59 350.65 1162.99 343.01 C 1144.40 335.37 1124.65 330.72 1103.00 328.00 C 1081.35 325.28 1058.28 326.71 1035.99 330.99 C 1013.70 335.27 1007.14 296.77 1031.03 294.02 C 1054.91 291.28 1077.08 287.59 1102.00 290.00
M 958.00 462.00 
C 945.20 459.03 932.40 456.24 920.00 452.00
C 920.00 424.67 920.00 397.33 920.00 370.00
C 877.24 395.39 834.45 421.38 793.00 449.00
C 813.39 453.71 833.65 458.86 854.02 463.98 C 874.40 469.09 894.43 474.05 915.01 478.99 C 935.58 483.93 955.33 488.71 976.07 493.93 C 996.82 499.14 1015.94 503.19 1037.07 508.93 C 1058.20 514.67 1077.54 516.26 1099.07 523.93 C 1120.60 531.60 1121.31 556.24 1120.00 579.00 C 1118.69 601.76 1120.77 631.08 1120.00 655.00 C 1119.23 678.92 1120.74 706.87 1120.00 731.00 C 1119.26 755.13 1121.21 783.46 1120.00 807.00 C 1118.79 830.54 1123.33 860.90 1118.02 882.02 C 1112.72 903.15 1098.80 914.27 1078.78 918.78 C 1058.76 923.28 1035.05 912.22 1014.78 909.22 C 994.51 906.23 972.42 899.99 951.93 896.07 C 931.44 892.16 908.76 886.89 888.33 882.67 C 867.89 878.46 846.10 873.04 825.98 869.02 C 805.85 865.01 785.40 862.46 770.75 848.25 C 756.09 834.04 747.15 820.88 747.01 797.99 C 746.87 775.11 747.02 746.09 747.00 722.00 C 746.99 697.91 746.92 669.33 747.00 645.00 C 747.08 620.67 746.75 592.79 747.00 569.00 C 747.25 545.21 746.43 515.21 747.00 493.00 C 747.57 470.79 742.35 441.81 757.25 427.25 C 772.15 412.69 787.88 408.47 803.25 397.25 C 818.61 386.02 835.70 377.49 851.08 368.08 C 866.45 358.66 882.49 344.86 897.70 338.70 C 912.90 332.53 929.66 306.73 947.75 319.25 C 965.84 331.78 956.09 363.40 958.00 385.00 C 959.91 406.60 956.56 439.38 958.00 462.00
M 1091.00 364.00 
C 1105.75 365.43 1124.61 368.69 1138.67 373.33 C 1152.73 377.97 1166.24 383.72 1178.70 391.31 C 1191.15 398.89 1200.77 407.03 1211.68 416.32 C 1222.59 425.60 1228.19 436.66 1237.75 448.25 C 1247.31 459.83 1247.68 474.13 1256.31 487.69 C 1264.93 501.26 1249.60 524.10 1233.99 516.01 C 1218.38 507.91 1220.51 492.98 1212.25 480.75 C 1203.98 468.53 1199.65 456.14 1188.70 446.30 C 1177.74 436.46 1168.30 428.34 1155.33 421.67 C 1142.36 415.01 1129.84 407.07 1113.93 405.07 C 1098.01 403.08 1078.79 397.65 1062.00 403.00 C 1045.21 408.35 1030.06 385.07 1042.25 373.25 C 1054.43 361.43 1074.75 362.43 1091.00 364.00
M 1101.00 439.00 
C 1116.52 441.52 1134.62 450.50 1147.08 458.92 C 1159.55 467.33 1172.75 480.82 1178.92 494.08 C 1185.09 507.34 1199.18 532.75 1179.30 541.30 C 1159.42 549.85 1151.96 526.26 1145.30 511.71 C 1138.63 497.15 1124.59 488.07 1109.92 480.08 C 1095.25 472.09 1066.05 485.57 1060.08 462.92 C 1054.10 440.28 1082.55 436.00 1101.00 439.00
M 1300.00 544.00 
C 1323.01 547.73 1333.22 573.13 1350.25 585.75 C 1367.29 598.36 1379.21 619.37 1396.75 632.25 C 1414.29 645.13 1432.55 673.45 1416.75 692.75 C 1400.95 712.05 1387.27 723.34 1370.75 739.75 C 1354.23 756.16 1340.30 771.73 1324.25 786.25 C 1308.19 800.77 1292.46 828.01 1269.78 823.22 C 1247.10 818.43 1236.78 794.50 1219.77 781.23 C 1202.76 767.96 1190.59 747.11 1173.30 734.70 C 1156.01 722.29 1137.31 694.40 1151.92 674.92 C 1166.52 655.44 1180.99 643.41 1197.25 627.25 C 1213.51 611.08 1227.20 595.94 1244.23 581.23 C 1261.26 566.52 1275.11 539.96 1300.00 544.00 Z"/>
</g>
<g fill="None" fill-opacity="0.0" stroke="#FCFCFC" stroke-opacity="0.97" stroke-width="0.3"><path d="
M 1102.00 290.00 
C 1077.08 287.59 1054.91 291.28 1031.03 294.02 C 1007.14 296.77 1013.70 335.27 1035.99 330.99 C 1058.28 326.71 1081.35 325.28 1103.00 328.00 C 1124.65 330.72 1144.40 335.37 1162.99 343.01 C 1181.59 350.65 1195.35 358.80 1210.92 369.08 C 1226.49 379.36 1236.50 390.85 1249.75 404.25 C 1263.00 417.65 1269.14 433.89 1279.25 448.75 C 1289.35 463.62 1287.54 492.61 1310.99 491.99 C 1334.45 491.38 1327.16 459.15 1318.31 444.69 C 1309.45 430.24 1302.79 410.99 1291.30 397.70 C 1279.80 384.41 1269.79 369.38 1255.75 358.25 C 1241.72 347.11 1230.07 335.19 1213.68 326.32 C 1197.29 317.45 1180.95 309.31 1162.67 303.33 C 1144.40 297.34 1121.25 291.86 1102.00 290.00 Z"/>
</g>
<g fill="None" fill-opacity="0.0" stroke="#FDFDFD" stroke-opacity="0.99" stroke-width="0.3"><path d="
M 958.00 462.00 
C 956.56 439.38 959.91 406.60 958.00 385.00 C 956.09 363.40 965.84 331.78 947.75 319.25 C 929.66 306.73 912.90 332.53 897.70 338.70 C 882.49 344.86 866.45 358.66 851.08 368.08 C 835.70 377.49 818.61 386.02 803.25 397.25 C 787.88 408.47 772.15 412.69 757.25 427.25 C 742.35 441.81 747.57 470.79 747.00 493.00 C 746.43 515.21 747.25 545.21 747.00 569.00 C 746.75 592.79 747.08 620.67 747.00 645.00 C 746.92 669.33 746.99 697.91 747.00 722.00 C 747.02 746.09 746.87 775.11 747.01 797.99 C 747.15 820.88 756.09 834.04 770.75 848.25 C 785.40 862.46 805.85 865.01 825.98 869.02 C 846.10 873.04 867.89 878.46 888.33 882.67 C 908.76 886.89 931.44 892.16 951.93 896.07 C 972.42 899.99 994.51 906.23 1014.78 909.22 C 1035.05 912.22 1058.76 923.28 1078.78 918.78 C 1098.80 914.27 1112.72 903.15 1118.02 882.02 C 1123.33 860.90 1118.79 830.54 1120.00 807.00 C 1121.21 783.46 1119.26 755.13 1120.00 731.00 C 1120.74 706.87 1119.23 678.92 1120.00 655.00 C 1120.77 631.08 1118.69 601.76 1120.00 579.00 C 1121.31 556.24 1120.60 531.60 1099.07 523.93 C 1077.54 516.26 1058.20 514.67 1037.07 508.93 C 1015.94 503.19 996.82 499.14 976.07 493.93 C 955.33 488.71 935.58 483.93 915.01 478.99 C 894.43 474.05 874.40 469.09 854.02 463.98 C 833.65 458.86 813.39 453.71 793.00 449.00
C 834.45 421.38 877.24 395.39 920.00 370.00
C 920.00 397.33 920.00 424.67 920.00 452.00
C 932.40 456.24 945.20 459.03 958.00 462.00
M 822.00 494.00 
C 820.05 516.78 821.15 539.71 821.00 563.00 C 820.85 586.29 820.92 610.63 821.00 634.00 C 821.08 657.37 820.64 681.75 821.00 705.00 C 821.36 728.25 819.98 752.91 821.33 775.67 C 822.68 798.43 843.77 801.72 862.00 805.00 C 880.23 808.27 901.87 813.70 920.22 817.78 C 938.58 821.86 961.42 824.96 979.01 829.99 C 996.59 835.02 1020.55 836.35 1036.00 842.00 C 1051.45 847.65 1084.27 843.44 1082.00 867.00 C 1079.73 890.56 1050.39 878.64 1033.93 875.07 C 1017.46 871.50 993.30 867.42 975.32 862.68 C 957.34 857.94 935.06 855.85 916.33 850.67 C 897.59 845.49 876.86 843.84 857.78 838.22 C 838.70 832.60 818.87 833.81 800.32 824.68 C 781.78 815.55 784.97 790.59 785.00 770.00 C 785.03 749.41 784.99 721.27 785.00 699.00 C 785.01 676.73 784.99 651.01 785.00 628.00 C 785.01 604.99 785.00 580.33 785.00 557.00 C 785.00 533.67 785.00 509.41 785.00 486.00
C 797.71 487.15 809.58 491.80 822.00 494.00 Z"/>
</g>
<g fill="None" fill-opacity="0.0" stroke="#FCFCFB" stroke-opacity="0.97" stroke-width="0.3"><path d="
M 1091.00 364.00 
C 1074.75 362.43 1054.43 361.43 1042.25 373.25 C 1030.06 385.07 1045.21 408.35 1062.00 403.00 C 1078.79 397.65 1098.01 403.08 1113.93 405.07 C 1129.84 407.07 1142.36 415.01 1155.33 421.67 C 1168.30 428.34 1177.74 436.46 1188.70 446.30 C 1199.65 456.14 1203.98 468.53 1212.25 480.75 C 1220.51 492.98 1218.38 507.91 1233.99 516.01 C 1249.60 524.10 1264.93 501.26 1256.31 487.69 C 1247.68 474.13 1247.31 459.83 1237.75 448.25 C 1228.19 436.66 1222.59 425.60 1211.68 416.32 C 1200.77 407.03 1191.15 398.89 1178.70 391.31 C 1166.24 383.72 1152.73 377.97 1138.67 373.33 C 1124.61 368.69 1105.75 365.43 1091.00 364.00 Z"/>
</g>
<g fill="None" fill-opacity="0.0" stroke="#FCFCFC" stroke-opacity="0.97" stroke-width="0.3"><path d="
M 1101.00 439.00 
C 1082.55 436.00 1054.10 440.28 1060.08 462.92 C 1066.05 485.57 1095.25 472.09 1109.92 480.08 C 1124.59 488.07 1138.63 497.15 1145.30 511.71 C 1151.96 526.26 1159.42 549.85 1179.30 541.30 C 1199.18 532.75 1185.09 507.34 1178.92 494.08 C 1172.75 480.82 1159.55 467.33 1147.08 458.92 C 1134.62 450.50 1116.52 441.52 1101.00 439.00 Z"/>
</g>
<g fill="None" fill-opacity="0.0" stroke="#000000" stroke-opacity="0.00" stroke-width="0.3"><path d="
M 822.00 494.00 
C 809.58 491.80 797.71 487.15 785.00 486.00
C 785.00 509.41 785.00 533.67 785.00 557.00 C 785.00 580.33 785.01 604.99 785.00 628.00 C 784.99 651.01 785.01 676.73 785.00 699.00 C 784.99 721.27 785.03 749.41 785.00 770.00 C 784.97 790.59 781.78 815.55 800.32 824.68 C 818.87 833.81 838.70 832.60 857.78 838.22 C 876.86 843.84 897.59 845.49 916.33 850.67 C 935.06 855.85 957.34 857.94 975.32 862.68 C 993.30 867.42 1017.46 871.50 1033.93 875.07 C 1050.39 878.64 1079.73 890.56 1082.00 867.00 C 1084.27 843.44 1051.45 847.65 1036.00 842.00 C 1020.55 836.35 996.59 835.02 979.01 829.99 C 961.42 824.96 938.58 821.86 920.22 817.78 C 901.87 813.70 880.23 808.27 862.00 805.00 C 843.77 801.72 822.68 798.43 821.33 775.67 C 819.98 752.91 821.36 728.25 821.00 705.00 C 820.64 681.75 821.08 657.37 821.00 634.00 C 820.92 610.63 820.85 586.29 821.00 563.00 C 821.15 539.71 820.05 516.78 822.00 494.00 Z"/>
</g>
<g fill="None" fill-opacity="0.0" stroke="#FDFDFC" stroke-opacity="0.98" stroke-width="0.3"><path d="
M 1300.00 544.00 
C 1275.11 539.96 1261.26 566.52 1244.23 581.23 C 1227.20 595.94 1213.51 611.08 1197.25 627.25 C 1180.99 643.41 1166.52 655.44 1151.92 674.92 C 1137.31 694.40 1156.01 722.29 1173.30 734.70 C 1190.59 747.11 1202.76 767.96 1219.77 781.23 C 1236.78 794.50 1247.10 818.43 1269.78 823.22 C 1292.46 828.01 1308.19 800.77 1324.25 786.25 C 1340.30 771.73 1354.23 756.16 1370.75 739.75 C 1387.27 723.34 1400.95 712.05 1416.75 692.75 C 1432.55 673.45 1414.29 645.13 1396.75 632.25 C 1379.21 619.37 1367.29 598.36 1350.25 585.75 C 1333.22 573.13 1323.01 547.73 1300.00 544.00
M 1322.00 600.00 
C 1283.67 638.61 1241.96 678.49 1203.00 719.00
C 1192.68 711.94 1185.20 700.87 1175.00 693.00
C 1181.40 684.05 1190.55 676.34 1198.25 668.25 C 1205.94 660.16 1214.99 652.74 1222.75 644.75 C 1230.51 636.76 1239.32 627.53 1247.25 620.25 C 1255.18 612.96 1263.24 602.24 1271.25 596.25 C 1279.25 590.26 1287.22 573.35 1297.07 575.93 C 1306.93 578.50 1311.90 596.02 1322.00 600.00 Z"/>
</g>
<g fill="None" fill-opacity="0.0" stroke="#000000" stroke-opacity="0.00" stroke-width="0.3"><path d="
M 1322.00 600.00 
C 1311.90 596.02 1306.93 578.50 1297.07 575.93 C 1287.22 573.35 1279.25 590.26 1271.25 596.25 C 1263.24 602.24 1255.18 612.96 1247.25 620.25 C 1239.32 627.53 1230.51 636.76 1222.75 644.75 C 1214.99 652.74 1205.94 660.16 1198.25 668.25 C 1190.55 676.34 1181.40 684.05 1175.00 693.00
C 1185.20 700.87 1192.68 711.94 1203.00 719.00
C 1241.96 678.49 1283.67 638.61 1322.00 600.00 Z"/>
</g>
<g fill="#000000" fill-opacity="0.00" stroke="None">
<path d="
M 0.00 1181.00 
L 2167.00 1181.00
L 2167.00 0.00
L 0.00 0.00
L 0.00 1181.00
M 1102.00 290.00 
C 1121.25 291.86 1144.40 297.34 1162.67 303.33 C 1180.95 309.31 1197.29 317.45 1213.68 326.32 C 1230.07 335.19 1241.72 347.11 1255.75 358.25 C 1269.79 369.38 1279.80 384.41 1291.30 397.70 C 1302.79 410.99 1309.45 430.24 1318.31 444.69 C 1327.16 459.15 1334.45 491.38 1310.99 491.99 C 1287.54 492.61 1289.35 463.62 1279.25 448.75 C 1269.14 433.89 1263.00 417.65 1249.75 404.25 C 1236.50 390.85 1226.49 379.36 1210.92 369.08 C 1195.35 358.80 1181.59 350.65 1162.99 343.01 C 1144.40 335.37 1124.65 330.72 1103.00 328.00 C 1081.35 325.28 1058.28 326.71 1035.99 330.99 C 1013.70 335.27 1007.14 296.77 1031.03 294.02 C 1054.91 291.28 1077.08 287.59 1102.00 290.00
M 958.00 462.00 
C 945.20 459.03 932.40 456.24 920.00 452.00
C 920.00 424.67 920.00 397.33 920.00 370.00
C 877.24 395.39 834.45 421.38 793.00 449.00
C 813.39 453.71 833.65 458.86 854.02 463.98 C 874.40 469.09 894.43 474.05 915.01 478.99 C 935.58 483.93 955.33 488.71 976.07 493.93 C 996.82 499.14 1015.94 503.19 1037.07 508.93 C 1058.20 514.67 1077.54 516.26 1099.07 523.93 C 1120.60 531.60 1121.31 556.24 1120.00 579.00 C 1118.69 601.76 1120.77 631.08 1120.00 655.00 C 1119.23 678.92 1120.74 706.87 1120.00 731.00 C 1119.26 755.13 1121.21 783.46 1120.00 807.00 C 1118.79 830.54 1123.33 860.90 1118.02 882.02 C 1112.72 903.15 1098.80 914.27 1078.78 918.78 C 1058.76 923.28 1035.05 912.22 1014.78 909.22 C 994.51 906.23 972.42 899.99 951.93 896.07 C 931.44 892.16 908.76 886.89 888.33 882.67 C 867.89 878.46 846.10 873.04 825.98 869.02 C 805.85 865.01 785.40 862.46 770.75 848.25 C 756.09 834.04 747.15 820.88 747.01 797.99 C 746.87 775.11 747.02 746.09 747.00 722.00 C 746.99 697.91 746.92 669.33 747.00 645.00 C 747.08 620.67 746.75 592.79 747.00 569.00 C 747.25 545.21 746.43 515.21 747.00 493.00 C 747.57 470.79 742.35 441.81 757.25 427.25 C 772.15 412.69 787.88 408.47 803.25 397.25 C 818.61 386.02 835.70 377.49 851.08 368.08 C 866.45 358.66 882.49 344.86 897.70 338.70 C 912.90 332.53 929.66 306.73 947.75 319.25 C 965.84 331.78 956.09 363.40 958.00 385.00 C 959.91 406.60 956.56 439.38 958.00 462.00
M 1091.00 364.00 
C 1105.75 365.43 1124.61 368.69 1138.67 373.33 C 1152.73 377.97 1166.24 383.72 1178.70 391.31 C 1191.15 398.89 1200.77 407.03 1211.68 416.32 C 1222.59 425.60 1228.19 436.66 1237.75 448.25 C 1247.31 459.83 1247.68 474.13 1256.31 487.69 C 1264.93 501.26 1249.60 524.10 1233.99 516.01 C 1218.38 507.91 1220.51 492.98 1212.25 480.75 C 1203.98 468.53 1199.65 456.14 1188.70 446.30 C 1177.74 436.46 1168.30 428.34 1155.33 421.67 C 1142.36 415.01 1129.84 407.07 1113.93 405.07 C 1098.01 403.08 1078.79 397.65 1062.00 403.00 C 1045.21 408.35 1030.06 385.07 1042.25 373.25 C 1054.43 361.43 1074.75 362.43 1091.00 364.00
M 1101.00 439.00 
C 1116.52 441.52 1134.62 450.50 1147.08 458.92 C 1159.55 467.33 1172.75 480.82 1178.92 494.08 C 1185.09 507.34 1199.18 532.75 1179.30 541.30 C 1159.42 549.85 1151.96 526.26 1145.30 511.71 C 1138.63 497.15 1124.59 488.07 1109.92 480.08 C 1095.25 472.09 1066.05 485.57 1060.08 462.92 C 1054.10 440.28 1082.55 436.00 1101.00 439.00
M 1300.00 544.00 
C 1323.01 547.73 1333.22 573.13 1350.25 585.75 C 1367.29 598.36 1379.21 619.37 1396.75 632.25 C 1414.29 645.13 1432.55 673.45 1416.75 692.75 C 1400.95 712.05 1387.27 723.34 1370.75 739.75 C 1354.23 756.16 1340.30 771.73 1324.25 786.25 C 1308.19 800.77 1292.46 828.01 1269.78 823.22 C 1247.10 818.43 1236.78 794.50 1219.77 781.23 C 1202.76 767.96 1190.59 747.11 1173.30 734.70 C 1156.01 722.29 1137.31 694.40 1151.92 674.92 C 1166.52 655.44 1180.99 643.41 1197.25 627.25 C 1213.51 611.08 1227.20 595.94 1244.23 581.23 C 1261.26 566.52 1275.11 539.96 1300.00 544.00 Z"/>
</g>
<g fill="#FCFCFC" fill-opacity="0.97" stroke="None">
<path d="
M 1102.00 290.00 
C 1077.08 287.59 1054.91 291.28 1031.03 294.02 C 1007.14 296.77 1013.70 335.27 1035.99 330.99 C 1058.28 326.71 1081.35 325.28 1103.00 328.00 C 1124.65 330.72 1144.40 335.37 1162.99 343.01 C 1181.59 350.65 1195.35 358.80 1210.92 369.08 C 1226.49 379.36 1236.50 390.85 1249.75 404.25 C 1263.00 417.65 1269.14 433.89 1279.25 448.75 C 1289.35 463.62 1287.54 492.61 1310.99 491.99 C 1334.45 491.38 1327.16 459.15 1318.31 444.69 C 1309.45 430.24 1302.79 410.99 1291.30 397.70 C 1279.80 384.41 1269.79 369.38 1255.75 358.25 C 1241.72 347.11 1230.07 335.19 1213.68 326.32 C 1197.29 317.45 1180.95 309.31 1162.67 303.33 C 1144.40 297.34 1121.25 291.86 1102.00 290.00 Z"/>
</g>
<g fill="#FDFDFD" fill-opacity="0.99" stroke="None">
<path d="
M 958.00 462.00 
C 956.56 439.38 959.91 406.60 958.00 385.00 C 956.09 363.40 965.84 331.78 947.75 319.25 C 929.66 306.73 912.90 332.53 897.70 338.70 C 882.49 344.86 866.45 358.66 851.08 368.08 C 835.70 377.49 818.61 386.02 803.25 397.25 C 787.88 408.47 772.15 412.69 757.25 427.25 C 742.35 441.81 747.57 470.79 747.00 493.00 C 746.43 515.21 747.25 545.21 747.00 569.00 C 746.75 592.79 747.08 620.67 747.00 645.00 C 746.92 669.33 746.99 697.91 747.00 722.00 C 747.02 746.09 746.87 775.11 747.01 797.99 C 747.15 820.88 756.09 834.04 770.75 848.25 C 785.40 862.46 805.85 865.01 825.98 869.02 C 846.10 873.04 867.89 878.46 888.33 882.67 C 908.76 886.89 931.44 892.16 951.93 896.07 C 972.42 899.99 994.51 906.23 1014.78 909.22 C 1035.05 912.22 1058.76 923.28 1078.78 918.78 C 1098.80 914.27 1112.72 903.15 1118.02 882.02 C 1123.33 860.90 1118.79 830.54 1120.00 807.00 C 1121.21 783.46 1119.26 755.13 1120.00 731.00 C 1120.74 706.87 1119.23 678.92 1120.00 655.00 C 1120.77 631.08 1118.69 601.76 1120.00 579.00 C 1121.31 556.24 1120.60 531.60 1099.07 523.93 C 1077.54 516.26 1058.20 514.67 1037.07 508.93 C 1015.94 503.19 996.82 499.14 976.07 493.93 C 955.33 488.71 935.58 483.93 915.01 478.99 C 894.43 474.05 874.40 469.09 854.02 463.98 C 833.65 458.86 813.39 453.71 793.00 449.00
C 834.45 421.38 877.24 395.39 920.00 370.00
C 920.00 397.33 920.00 424.67 920.00 452.00
C 932.40 456.24 945.20 459.03 958.00 462.00
M 822.00 494.00 
C 820.05 516.78 821.15 539.71 821.00 563.00 C 820.85 586.29 820.92 610.63 821.00 634.00 C 821.08 657.37 820.64 681.75 821.00 705.00 C 821.36 728.25 819.98 752.91 821.33 775.67 C 822.68 798.43 843.77 801.72 862.00 805.00 C 880.23 808.27 901.87 813.70 920.22 817.78 C 938.58 821.86 961.42 824.96 979.01 829.99 C 996.59 835.02 1020.55 836.35 1036.00 842.00 C 1051.45 847.65 1084.27 843.44 1082.00 867.00 C 1079.73 890.56 1050.39 878.64 1033.93 875.07 C 1017.46 871.50 993.30 867.42 975.32 862.68 C 957.34 857.94 935.06 855.85 916.33 850.67 C 897.59 845.49 876.86 843.84 857.78 838.22 C 838.70 832.60 818.87 833.81 800.32 824.68 C 781.78 815.55 784.97 790.59 785.00 770.00 C 785.03 749.41 784.99 721.27 785.00 699.00 C 785.01 676.73 784.99 651.01 785.00 628.00 C 785.01 604.99 785.00 580.33 785.00 557.00 C 785.00 533.67 785.00 509.41 785.00 486.00
C 797.71 487.15 809.58 491.80 822.00 494.00 Z"/>
</g>
<g fill="#FCFCFB" fill-opacity="0.97" stroke="None">
<path d="
M 1091.00 364.00 
C 1074.75 362.43 1054.43 361.43 1042.25 373.25 C 1030.06 385.07 1045.21 408.35 1062.00 403.00 C 1078.79 397.65 1098.01 403.08 1113.93 405.07 C 1129.84 407.07 1142.36 415.01 1155.33 421.67 C 1168.30 428.34 1177.74 436.46 1188.70 446.30 C 1199.65 456.14 1203.98 468.53 1212.25 480.75 C 1220.51 492.98 1218.38 507.91 1233.99 516.01 C 1249.60 524.10 1264.93 501.26 1256.31 487.69 C 1247.68 474.13 1247.31 459.83 1237.75 448.25 C 1228.19 436.66 1222.59 425.60 1211.68 416.32 C 1200.77 407.03 1191.15 398.89 1178.70 391.31 C 1166.24 383.72 1152.73 377.97 1138.67 373.33 C 1124.61 368.69 1105.75 365.43 1091.00 364.00 Z"/>
</g>
<g fill="#FCFCFC" fill-opacity="0.97" stroke="None">
<path d="
M 1101.00 439.00 
C 1082.55 436.00 1054.10 440.28 1060.08 462.92 C 1066.05 485.57 1095.25 472.09 1109.92 480.08 C 1124.59 488.07 1138.63 497.15 1145.30 511.71 C 1151.96 526.26 1159.42 549.85 1179.30 541.30 C 1199.18 532.75 1185.09 507.34 1178.92 494.08 C 1172.75 480.82 1159.55 467.33 1147.08 458.92 C 1134.62 450.50 1116.52 441.52 1101.00 439.00 Z"/>
</g>
<g fill="#000000" fill-opacity="0.00" stroke="None">
<path d="
M 822.00 494.00 
C 809.58 491.80 797.71 487.15 785.00 486.00
C 785.00 509.41 785.00 533.67 785.00 557.00 C 785.00 580.33 785.01 604.99 785.00 628.00 C 784.99 651.01 785.01 676.73 785.00 699.00 C 784.99 721.27 785.03 749.41 785.00 770.00 C 784.97 790.59 781.78 815.55 800.32 824.68 C 818.87 833.81 838.70 832.60 857.78 838.22 C 876.86 843.84 897.59 845.49 916.33 850.67 C 935.06 855.85 957.34 857.94 975.32 862.68 C 993.30 867.42 1017.46 871.50 1033.93 875.07 C 1050.39 878.64 1079.73 890.56 1082.00 867.00 C 1084.27 843.44 1051.45 847.65 1036.00 842.00 C 1020.55 836.35 996.59 835.02 979.01 829.99 C 961.42 824.96 938.58 821.86 920.22 817.78 C 901.87 813.70 880.23 808.27 862.00 805.00 C 843.77 801.72 822.68 798.43 821.33 775.67 C 819.98 752.91 821.36 728.25 821.00 705.00 C 820.64 681.75 821.08 657.37 821.00 634.00 C 820.92 610.63 820.85 586.29 821.00 563.00 C 821.15 539.71 820.05 516.78 822.00 494.00 Z"/>
</g>
<g fill="#FDFDFC" fill-opacity="0.98" stroke="None">
<path d="
M 1300.00 544.00 
C 1275.11 539.96 1261.26 566.52 1244.23 581.23 C 1227.20 595.94 1213.51 611.08 1197.25 627.25 C 1180.99 643.41 1166.52 655.44 1151.92 674.92 C 1137.31 694.40 1156.01 722.29 1173.30 734.70 C 1190.59 747.11 1202.76 767.96 1219.77 781.23 C 1236.78 794.50 1247.10 818.43 1269.78 823.22 C 1292.46 828.01 1308.19 800.77 1324.25 786.25 C 1340.30 771.73 1354.23 756.16 1370.75 739.75 C 1387.27 723.34 1400.95 712.05 1416.75 692.75 C 1432.55 673.45 1414.29 645.13 1396.75 632.25 C 1379.21 619.37 1367.29 598.36 1350.25 585.75 C 1333.22 573.13 1323.01 547.73 1300.00 544.00
M 1322.00 600.00 
C 1283.67 638.61 1241.96 678.49 1203.00 719.00
C 1192.68 711.94 1185.20 700.87 1175.00 693.00
C 1181.40 684.05 1190.55 676.34 1198.25 668.25 C 1205.94 660.16 1214.99 652.74 1222.75 644.75 C 1230.51 636.76 1239.32 627.53 1247.25 620.25 C 1255.18 612.96 1263.24 602.24 1271.25 596.25 C 1279.25 590.26 1287.22 573.35 1297.07 575.93 C 1306.93 578.50 1311.90 596.02 1322.00 600.00 Z"/>
</g>
<g fill="#000000" fill-opacity="0.00" stroke="None">
<path d="
M 1322.00 600.00 
C 1311.90 596.02 1306.93 578.50 1297.07 575.93 C 1287.22 573.35 1279.25 590.26 1271.25 596.25 C 1263.24 602.24 1255.18 612.96 1247.25 620.25 C 1239.32 627.53 1230.51 636.76 1222.75 644.75 C 1214.99 652.74 1205.94 660.16 1198.25 668.25 C 1190.55 676.34 1181.40 684.05 1175.00 693.00
C 1185.20 700.87 1192.68 711.94 1203.00 719.00
C 1241.96 678.49 1283.67 638.61 1322.00 600.00 Z"/>
</g>
</svg>